<svg width="63" height="47" viewBox="0 0 63 47" fill="none" xmlns="http://www.w3.org/2000/svg">
<path fill-rule="evenodd" clip-rule="evenodd" d="M22.6667 1.06668C10.1482 1.06668 0 11.2149 0 23.7333C0 36.2518 10.1482 46.4 22.6667 46.4H45.3333V23.7333C45.3333 11.2149 35.1851 1.06668 22.6667 1.06668ZM22.6667 33.6C28.1159 33.6 32.5333 29.1825 32.5333 23.7333C32.5333 18.2841 28.1159 13.8667 22.6667 13.8667C17.2174 13.8667 12.8 18.2841 12.8 23.7333C12.8 29.1825 17.2174 33.6 22.6667 33.6Z" fill="#026B3F"/>
<path fill-rule="evenodd" clip-rule="evenodd" d="M46.8667 46.4H53.8V23.2C53.8 10.6815 43.6518 0.533325 31.1333 0.533325C29.9583 0.533325 28.8042 0.623901 27.6774 0.7984C38.5451 2.47161 46.8667 11.864 46.8667 23.2V46.4Z" fill="#46A07A"/>
<path fill-rule="evenodd" clip-rule="evenodd" d="M55.3334 46.4H62.2667V22.6667C62.2667 10.1482 52.1185 0 39.6 0C38.4213 0 37.2636 0.0899744 36.1334 0.26343C47.0063 1.93212 55.3334 11.3269 55.3334 22.6667V46.4Z" fill="#065031"/>
</svg>
