<svg width="236" height="49" viewBox="0 0 236 49" fill="none" xmlns="http://www.w3.org/2000/svg">
<path d="M65.2307 30.64C67.2827 35.392 71.9987 38.668 77.5427 38.668C84.8867 38.668 90.9347 32.8 90.9347 25.564C90.9347 18.328 84.9587 12.46 77.5427 12.46C70.1987 12.46 64.1867 18.292 64.1867 25.564C64.1867 27.364 64.5467 29.056 65.2307 30.64ZM69.2987 22.108C70.7027 18.976 73.9067 16.78 77.5427 16.78C82.4387 16.78 86.5067 20.668 86.5067 25.564C86.5067 30.568 82.4747 34.348 77.5427 34.348C72.3947 34.348 68.5787 30.244 68.5787 25.564C68.5787 24.34 68.8307 23.188 69.2987 22.108ZM93.102 30.244C93.102 34.564 96.63 38.164 100.986 38.164H102.066V33.844H100.986C99.078 33.844 97.494 32.26 97.494 30.352V26.644H100.086V22.324H97.494V16.528H93.102V30.244ZM103.896 32.764C105.3 36.148 108.684 38.632 112.824 38.632C118.332 38.632 122.544 34.276 122.544 29.164C122.544 23.872 118.26 19.66 112.824 19.66C107.352 19.66 103.14 23.98 103.14 29.164C103.14 30.424 103.392 31.648 103.896 32.764ZM107.928 27.148C108.72 25.312 110.556 23.98 112.824 23.98C115.596 23.98 118.116 26.104 118.116 29.164C118.116 31.936 115.884 34.312 112.824 34.312C109.764 34.312 107.532 31.864 107.532 29.164C107.532 28.48 107.676 27.796 107.928 27.148ZM124.707 27.364C124.707 33.34 130.107 38.164 136.803 38.164H139.215V33.772H137.091C132.663 33.772 129.099 31.072 129.099 27.148V13H124.707V27.364ZM141.02 20.164V30.136C141.02 34.636 144.26 38.56 149.912 38.668C155.816 38.56 158.444 34.636 158.444 30.136V20.164H154.016V30.136C154.016 32.584 151.928 34.348 149.732 34.348C147.284 34.348 145.448 32.548 145.448 30.136V20.164H141.02ZM160.62 29.128C160.62 33.16 163.212 36.652 166.992 38.02C167.136 38.056 167.244 38.128 167.352 38.164C168.324 38.416 169.26 38.56 170.088 38.56C170.16 38.56 170.232 38.56 170.268 38.56C171.456 38.56 173.076 39.316 173.076 41.26C173.076 43.024 171.708 43.924 170.304 43.924C168.972 43.924 167.676 43.132 167.568 41.44H163.14C163.248 45.328 166.488 48.28 170.34 48.28C172.176 48.28 173.976 47.632 175.38 46.228C175.992 45.616 176.496 44.932 176.856 44.14C177.576 42.556 177.468 41.548 177.468 41.296C177.468 39.892 177.072 38.308 175.884 36.868C178.476 35.14 180.024 32.26 180.024 29.128C180.024 23.692 175.596 19.624 170.304 19.624C164.94 19.624 160.62 23.836 160.62 29.128ZM165.012 29.128C165.012 26.068 167.568 23.944 170.304 23.944C173.364 23.944 175.596 26.32 175.596 29.128C175.596 31.864 173.472 34.276 170.304 34.276C169.764 34.276 169.26 34.204 168.792 34.06C168.72 34.06 168.648 34.024 168.54 33.988C166.416 33.268 165.012 31.324 165.012 29.128ZM182.224 32.764C183.628 36.148 187.012 38.632 191.152 38.632C192.412 38.632 193.6 38.416 194.788 37.948C194.572 37.552 193.6 34.996 193.312 34.348C192.7 34.6 191.98 34.708 191.152 34.708C188.056 34.708 185.896 31.864 185.896 29.164C185.896 26.392 188.128 23.548 191.152 23.548C194.212 23.548 196.444 25.852 196.444 29.164V38.164H200.872V29.164C200.872 23.872 196.588 19.66 191.152 19.66C185.824 19.66 181.468 23.836 181.468 29.164C181.468 30.424 181.72 31.648 182.224 32.764ZM203.739 38.164H208.131V28.624C208.131 26.176 210.291 24.34 212.595 24.34V20.02C207.807 20.02 203.847 23.728 203.739 28.624V38.164Z" fill="#026B3F"/>
<path fill-rule="evenodd" clip-rule="evenodd" d="M22.6667 1.06668C10.1482 1.06668 0 11.2149 0 23.7333C0 36.2518 10.1482 46.4 22.6667 46.4H45.3333V23.7333C45.3333 11.2149 35.1851 1.06668 22.6667 1.06668ZM22.6667 33.6C28.1159 33.6 32.5333 29.1825 32.5333 23.7333C32.5333 18.2841 28.1159 13.8667 22.6667 13.8667C17.2174 13.8667 12.8 18.2841 12.8 23.7333C12.8 29.1825 17.2174 33.6 22.6667 33.6Z" fill="#026B3F"/>
<path fill-rule="evenodd" clip-rule="evenodd" d="M45.8667 46.4H52.8V23.2C52.8 10.6815 42.6518 0.533325 30.1333 0.533325C28.9583 0.533325 27.8042 0.623901 26.6774 0.7984C37.5451 2.47161 45.8667 11.864 45.8667 23.2V46.4Z" fill="#46A07A"/>
<path fill-rule="evenodd" clip-rule="evenodd" d="M53.3334 46.4H60.2667V22.6667C60.2667 10.1482 50.1185 0 37.6 0C36.4213 0 35.2636 0.0899744 34.1334 0.26343C45.0063 1.93212 53.3334 11.3269 53.3334 22.6667V46.4Z" fill="#065031"/>
</svg>
