<svg width="347" height="73" viewBox="0 0 347 73" fill="none" xmlns="http://www.w3.org/2000/svg">
<path d="M90.672 51.48C87.504 51.48 84.784 51 82.512 50.04C80.24 49.08 78.368 47.8 76.896 46.2C75.424 44.568 74.336 42.664 73.632 40.488C72.96 38.28 72.624 35.944 72.624 33.48C72.624 31.048 73.04 28.744 73.872 26.568C74.704 24.36 75.888 22.44 77.424 20.808C78.96 19.176 80.848 17.88 83.088 16.92C85.36 15.96 87.904 15.48 90.72 15.48C93.696 15.48 96.32 15.96 98.592 16.92C100.864 17.88 102.752 19.176 104.256 20.808C105.792 22.408 106.944 24.312 107.712 26.52C108.48 28.728 108.864 31.048 108.864 33.48C108.864 35.912 108.448 38.232 107.616 40.44C106.816 42.616 105.648 44.52 104.112 46.152C102.576 47.784 100.672 49.08 98.4 50.04C96.128 51 93.552 51.48 90.672 51.48ZM90.672 43.464C92.24 43.464 93.616 43.208 94.8 42.696C95.984 42.152 96.976 41.432 97.776 40.536C98.576 39.64 99.168 38.584 99.552 37.368C99.968 36.152 100.176 34.856 100.176 33.48C100.176 32.104 99.968 30.808 99.552 29.592C99.168 28.344 98.592 27.272 97.824 26.376C97.056 25.448 96.064 24.728 94.848 24.216C93.664 23.672 92.288 23.4 90.72 23.4C89.184 23.4 87.824 23.672 86.64 24.216C85.488 24.76 84.512 25.496 83.712 26.424C82.944 27.32 82.352 28.376 81.936 29.592C81.552 30.808 81.36 32.104 81.36 33.48C81.36 34.856 81.52 36.152 81.84 37.368C82.192 38.584 82.736 39.64 83.472 40.536C84.24 41.432 85.216 42.152 86.4 42.696C87.584 43.208 89.008 43.464 90.672 43.464ZM131.107 43.224V50.52C130.307 50.776 129.427 51 128.467 51.192C127.539 51.384 126.659 51.48 125.827 51.48C122.595 51.48 120.291 50.808 118.915 49.464C117.539 48.088 116.851 45.816 116.851 42.648V31.704H111.955V24.12H116.995V17.304L124.963 13.752V24.12H131.107V31.704H124.963V41.016C124.963 42.168 125.203 43 125.683 43.512C126.195 43.992 126.867 44.232 127.699 44.232C128.307 44.232 128.883 44.152 129.427 43.992C129.971 43.832 130.531 43.576 131.107 43.224ZM148.547 51.48C146.179 51.48 144.067 51.128 142.211 50.424C140.387 49.72 138.851 48.744 137.603 47.496C136.355 46.248 135.411 44.776 134.771 43.08C134.131 41.384 133.811 39.544 133.811 37.56C133.811 35.64 134.131 33.832 134.771 32.136C135.443 30.408 136.403 28.92 137.651 27.672C138.899 26.424 140.435 25.432 142.259 24.696C144.115 23.96 146.211 23.592 148.547 23.592C150.915 23.592 153.011 23.96 154.835 24.696C156.659 25.4 158.195 26.376 159.443 27.624C160.691 28.872 161.635 30.344 162.275 32.04C162.947 33.736 163.283 35.576 163.283 37.56C163.283 39.48 162.963 41.304 162.323 43.032C161.683 44.728 160.739 46.2 159.491 47.448C158.275 48.696 156.739 49.688 154.883 50.424C153.059 51.128 150.947 51.48 148.547 51.48ZM148.547 44.28C150.723 44.28 152.291 43.672 153.251 42.456C154.243 41.208 154.739 39.56 154.739 37.512C154.739 35.368 154.211 33.704 153.155 32.52C152.131 31.304 150.595 30.696 148.547 30.696C146.467 30.696 144.915 31.304 143.891 32.52C142.867 33.736 142.355 35.4 142.355 37.512C142.355 39.624 142.851 41.288 143.843 42.504C144.867 43.688 146.435 44.28 148.547 44.28ZM190.537 51L191.449 44.328H173.977L177.961 15.96H170.905L166.009 51H190.537ZM214.389 24.12L212.565 37.32C211.797 42.024 209.637 45.816 206.421 45.816C203.109 45.816 202.101 43.608 202.917 37.512L204.789 24.12H198.117L195.765 40.968C194.805 47.928 196.821 51.528 201.861 51.528C206.997 51.528 210.597 46.824 212.373 38.52L211.701 43.512C211.269 46.536 211.317 48.648 211.749 49.8C212.181 50.904 213.285 51.48 215.013 51.48C217.221 51.48 218.997 50.28 220.293 47.88C221.637 45.432 222.789 42.264 223.797 38.328H223.509C222.213 43.32 221.253 45.288 220.053 45.288C218.853 45.288 218.565 44.28 219.141 40.248L221.397 24.12H214.389ZM225.861 36.552C224.565 46.152 229.989 51 235.989 51C242.469 51 244.821 46.488 246.597 39.72L245.493 45.48L244.965 49.032C244.149 54.792 240.789 57.144 235.845 57.144C232.005 57.144 230.853 55.608 231.189 54.024C231.429 52.824 232.677 51.768 236.325 51C228.693 51.912 225.141 53.88 224.517 56.616C224.085 58.44 224.613 60.024 226.101 61.32C227.589 62.664 230.661 63.336 235.269 63.336C244.677 63.336 250.677 58.152 251.877 49.56L255.429 24.12H248.469L247.653 30.12L247.125 35.784C247.365 28.584 246.117 23.592 238.821 23.592C232.053 23.592 226.869 29.112 225.861 36.552ZM239.109 45.096C234.645 45.096 232.005 41.784 232.629 36.936C233.205 32.904 236.085 29.976 240.309 29.976C245.397 29.976 247.461 33.672 246.837 38.088C246.261 42.12 243.525 45.096 239.109 45.096ZM259.237 30.792C258.709 34.392 260.245 37.512 268.597 37.512C269.125 37.512 269.749 37.464 270.373 37.464C267.925 37.896 265.957 38.28 264.565 38.664C263.173 39 261.877 39.48 260.677 40.104C258.181 41.4 257.029 43.08 256.693 45.384C256.165 48.84 258.421 51.672 263.749 51.672C270.853 51.672 273.541 47.208 275.845 39.864C275.605 41.016 275.125 42.648 274.885 44.712C274.309 48.888 274.789 51.48 278.245 51.48C280.453 51.48 282.229 50.28 283.525 47.88C284.869 45.432 286.021 42.264 287.029 38.328H286.741C285.445 43.32 284.485 45.288 283.285 45.288C282.085 45.288 281.653 44.28 282.277 40.248L283.189 34.488C284.389 27.048 280.741 23.592 271.957 23.592C268.165 23.592 265.189 24.312 262.981 25.704C260.773 27.096 259.525 28.824 259.237 30.792ZM276.805 33.768C276.613 35.16 275.125 36.12 273.541 36.552C272.149 36.984 270.517 37.128 269.509 37.128C265.429 37.128 265.045 35.544 265.189 33.72C265.429 31.176 268.021 29.496 271.861 29.496C276.037 29.496 277.141 31.32 276.805 33.768ZM264.085 42.12C264.277 40.632 265.093 39.528 266.869 38.712C268.597 37.992 271.237 37.512 272.965 37.08C274.837 36.648 276.085 35.928 276.709 34.92L276.325 37.272C275.413 42.984 272.581 45.864 268.213 45.864C265.093 45.864 263.845 44.184 264.085 42.12ZM300.825 37.848C308.073 37.848 311.913 35.016 312.537 30.648C313.161 26.616 310.665 23.736 306.633 23.736C301.209 23.736 298.761 27.768 297.369 35.208L298.905 24.12H291.945L288.201 51H295.209L297.321 35.736C297.753 32.232 299.625 29.592 302.457 29.592C305.385 29.592 306.681 31.176 306.345 33.864C306.009 36.216 303.753 37.56 300.873 37.56L300.825 37.848Z" fill="#026B3F"/>
<path fill-rule="evenodd" clip-rule="evenodd" d="M22.6667 9.06668C10.1482 9.06668 0 19.2149 0 31.7333C0 44.2518 10.1482 54.4 22.6667 54.4H45.3333V31.7333C45.3333 19.2149 35.1851 9.06668 22.6667 9.06668ZM22.6667 41.6C28.1159 41.6 32.5333 37.1825 32.5333 31.7333C32.5333 26.2841 28.1159 21.8667 22.6667 21.8667C17.2174 21.8667 12.8 26.2841 12.8 31.7333C12.8 37.1825 17.2174 41.6 22.6667 41.6Z" fill="#026B3F"/>
<path fill-rule="evenodd" clip-rule="evenodd" d="M46.8667 54.4H53.8V31.2C53.8 18.6815 43.6518 8.53333 31.1333 8.53333C29.9583 8.53333 28.8042 8.6239 27.6774 8.7984C38.5451 10.4716 46.8667 19.864 46.8667 31.2V54.4Z" fill="#46A07A"/>
<path fill-rule="evenodd" clip-rule="evenodd" d="M55.3334 54.4H62.2667V30.6667C62.2667 18.1482 52.1185 8 39.6 8C38.4213 8 37.2636 8.08997 36.1334 8.26343C47.0063 9.93212 55.3334 19.3269 55.3334 30.6667V54.4Z" fill="#065031"/>
</svg>
