<svg width="1138" height="1157" viewBox="0 0 1138 1157" fill="none" xmlns="http://www.w3.org/2000/svg">
<g filter="url(#filter0_bd_2_730)">
<path d="M890.32 772.187C886.737 774.256 882.332 775.85 877.425 776.751L719.319 805.788C674.438 814.018 634.124 817.451 596.044 816.321C512.732 813.868 434.537 794.121 375.889 760.667L182.783 650.6C142.699 628.683 150.425 574.841 164.321 558.176L293.486 452.558C300.792 443.658 313.408 436.31 328.886 431.893L585.344 358.19C614.017 349.92 648.289 352.922 670.523 365.623L863.77 475.771C922.363 509.16 961.827 512.972 967.17 560.994C974.691 607.999 959.854 647.349 946.173 673.254L898.025 764.695C896.55 767.543 893.875 770.102 890.32 772.187Z" fill="#05D536" shape-rendering="crispEdges"/>
<path d="M891.141 772.654L891.135 772.657C887.428 774.797 882.865 776.449 877.774 777.384L719.668 806.422L719.319 805.788L719.667 806.422C674.684 814.671 634.231 818.12 595.985 816.985C512.395 814.524 433.932 794.71 375.08 761.14C375.079 761.14 375.079 761.139 375.079 761.139L181.992 651.082C181.989 651.081 181.986 651.079 181.983 651.077C161.611 639.935 153.504 620.775 152.159 602.447C150.813 584.106 156.222 566.356 163.284 557.887C163.311 557.854 163.344 557.822 163.381 557.792L292.488 452.222C299.914 443.208 312.698 435.772 328.373 431.298L891.141 772.654ZM891.141 772.654C894.823 770.494 897.598 767.841 899.128 764.886C899.128 764.886 899.128 764.885 899.128 764.885L947.274 673.448C947.274 673.448 947.274 673.447 947.274 673.447C960.982 647.493 975.854 608.056 968.318 560.941C965.63 536.804 954.34 523.697 936.283 512.443C927.342 506.871 916.754 501.761 904.823 496.002L904.632 495.91C892.609 490.107 879.19 483.624 864.579 475.298L671.333 365.15M891.141 772.654L671.333 365.15M671.333 365.15L671.332 365.15C648.737 352.243 613.931 349.203 584.831 357.595L671.333 365.15ZM584.83 357.595L328.376 431.297L584.83 357.595Z" stroke="url(#paint0_linear_2_730)" stroke-width="1.88021" stroke-linecap="round" stroke-linejoin="round" shape-rendering="crispEdges"/>
</g>
<g filter="url(#filter1_b_2_730)">
<mask id="path-3-outside-1_2_730" maskUnits="userSpaceOnUse" x="53.1269" y="244.373" width="1090.35" height="629.459" fill="black">
<rect fill="white" x="53.1269" y="244.373" width="1090.35" height="629.459"/>
<path d="M890.318 724.79C886.735 726.859 882.329 728.452 877.423 729.353L719.316 758.391C674.436 766.621 634.122 770.054 596.042 768.924C512.73 766.471 434.535 746.723 375.886 713.269L182.781 603.202C160.49 590.502 154.916 570.769 168.813 554.104L293.484 405.161C300.79 396.261 313.405 388.913 328.884 384.495L585.342 310.793C614.015 302.523 648.287 305.524 670.521 318.225L863.768 428.374C922.36 461.762 957.551 506.598 962.895 554.619C965.34 576.649 959.852 599.952 946.17 625.857L898.023 717.297C896.548 720.146 893.873 722.705 890.318 724.79Z"/>
</mask>
<path d="M890.318 724.79C886.735 726.859 882.329 728.452 877.423 729.353L719.316 758.391C674.436 766.621 634.122 770.054 596.042 768.924C512.73 766.471 434.535 746.723 375.886 713.269L182.781 603.202C160.49 590.502 154.916 570.769 168.813 554.104L293.484 405.161C300.79 396.261 313.405 388.913 328.884 384.495L585.342 310.793C614.015 302.523 648.287 305.524 670.521 318.225L863.768 428.374C922.36 461.762 957.551 506.598 962.895 554.619C965.34 576.649 959.852 599.952 946.17 625.857L898.023 717.297C896.548 720.146 893.873 722.705 890.318 724.79Z" fill="url(#paint1_linear_2_730)"/>
<path d="M894.667 727.301C897.069 725.914 897.069 723.666 894.667 722.279C892.265 720.893 888.371 720.893 885.969 722.279L894.667 727.301ZM877.423 729.353L875.559 725.97L875.558 725.97L877.423 729.353ZM719.316 758.391L721.178 761.775L721.181 761.775L719.316 758.391ZM596.042 768.924L596.358 765.378L596.355 765.378L596.042 768.924ZM375.886 713.269L380.209 710.744L380.207 710.743L375.886 713.269ZM182.781 603.202L187.102 600.676L187.101 600.675L182.781 603.202ZM168.813 554.104L163.275 552.559L163.271 552.563L168.813 554.104ZM293.484 405.161L299.021 406.706C299.028 406.698 299.035 406.69 299.041 406.682L293.484 405.161ZM328.884 384.495L331.609 387.678L331.624 387.674L328.884 384.495ZM585.342 310.793L588.083 313.971L588.091 313.969L585.342 310.793ZM670.521 318.225L666.195 320.749L666.2 320.752L670.521 318.225ZM863.768 428.374L859.447 430.901L859.447 430.901L863.768 428.374ZM962.895 554.619L969.032 554.392L969.032 554.392L962.895 554.619ZM946.17 625.857L940.287 624.821L940.286 624.824L946.17 625.857ZM898.023 717.297L892.138 716.265C892.135 716.27 892.133 716.275 892.13 716.281L898.023 717.297ZM885.935 722.299C883.552 723.697 883.583 725.945 886.004 727.32C888.425 728.696 892.319 728.678 894.701 727.281L885.935 722.299ZM885.969 722.279C883.047 723.967 879.482 725.249 875.559 725.97L879.287 732.737C885.177 731.655 890.423 729.751 894.667 727.301L885.969 722.279ZM875.558 725.97L717.452 755.007L721.181 761.775L879.288 732.737L875.558 725.97ZM717.454 755.007C673.121 763.137 633.553 766.482 596.358 765.378L595.726 772.47C634.691 773.627 675.751 770.105 721.178 761.775L717.454 755.007ZM596.355 765.378C514.529 762.969 437.768 743.576 380.209 710.744L371.563 715.795C431.302 749.871 510.93 769.973 595.728 772.47L596.355 765.378ZM380.207 710.743L187.102 600.676L178.46 605.729L371.565 715.796L380.207 710.743ZM187.101 600.675C166.746 589.078 161.557 570.991 174.354 555.644L163.271 552.563C148.275 570.548 154.233 591.926 178.461 605.729L187.101 600.675ZM174.35 555.648L299.021 406.706L287.946 403.616L163.275 552.559L174.35 555.648ZM299.041 406.682C305.744 398.518 317.349 391.748 331.609 387.678L326.158 381.312C309.462 386.078 295.836 394.005 287.926 403.64L299.041 406.682ZM331.624 387.674L588.083 313.971L582.601 307.614L326.143 381.317L331.624 387.674ZM588.091 313.969C614.482 306.357 645.892 309.151 666.195 320.749L674.847 315.701C650.681 301.897 613.548 298.688 582.593 307.616L588.091 313.969ZM666.2 320.752L859.447 430.901L868.089 425.848L674.842 315.699L666.2 320.752ZM859.447 430.901C916.951 463.669 951.509 507.682 956.757 554.847L969.032 554.392C963.594 505.514 927.77 459.856 868.088 425.847L859.447 430.901ZM956.757 554.846C959.145 576.364 953.801 599.234 940.287 624.821L952.053 626.892C965.902 600.67 971.534 576.934 969.032 554.392L956.757 554.846ZM940.286 624.824L892.138 716.265L903.907 718.33L952.055 626.889L940.286 624.824ZM892.13 716.281C890.951 718.557 888.807 720.615 885.935 722.299L894.701 727.281C898.939 724.796 902.145 721.734 903.916 718.314L892.13 716.281Z" fill="url(#paint2_linear_2_730)" mask="url(#path-3-outside-1_2_730)"/>
</g>
<g filter="url(#filter2_d_2_730)">
<path d="M191.636 389.952L203.193 383.281C400.947 269.118 730.155 287.861 885.47 422.126L848.769 490.189C842.702 501.44 830.652 511.302 814.329 518.375L609.772 549.209C594.689 551.483 578.795 551.227 563.954 548.473L365.722 511.679L191.636 389.952Z" fill="#27F171"/>
</g>
<g filter="url(#filter3_b_2_730)">
<path d="M838.492 522.586L838.486 522.59C834.779 524.73 830.216 526.382 825.125 527.316L667.019 556.354L666.67 555.721L667.018 556.354C622.036 564.603 581.582 568.053 543.336 566.918C459.746 564.456 381.283 544.642 322.431 511.072C322.431 511.072 322.43 511.072 322.43 511.072L129.343 401.015C129.34 401.013 129.337 401.011 129.334 401.01C108.962 389.868 100.855 370.707 99.51 352.379C98.1637 334.038 103.573 316.289 110.635 307.82C110.662 307.787 110.695 307.755 110.732 307.725L239.839 202.154C247.265 193.14 260.049 185.704 275.724 181.23L838.492 522.586ZM838.492 522.586C842.174 520.426 844.949 517.773 846.479 514.818C846.479 514.818 846.479 514.818 846.479 514.817L894.625 423.38C894.625 423.38 894.625 423.38 894.625 423.38C908.333 397.425 923.205 357.988 915.669 310.874C912.981 286.736 901.691 273.629 883.634 262.376C874.693 256.804 864.105 251.693 852.174 245.935L851.983 245.842C839.96 240.039 826.541 233.556 811.93 225.231L618.684 115.082M838.492 522.586L618.684 115.082M618.684 115.082L618.683 115.082C596.088 102.175 561.282 99.1349 532.182 107.527L618.684 115.082ZM532.181 107.528L275.727 181.229L532.181 107.528Z" fill="white" fill-opacity="0.5" stroke="url(#paint3_linear_2_730)" stroke-width="1.88021" stroke-linecap="round" stroke-linejoin="round"/>
</g>
<g filter="url(#filter4_b_2_730)">
<mask id="path-7-outside-2_2_730" maskUnits="userSpaceOnUse" x="0.48137" y="-5.69493" width="1090.35" height="629.459" fill="black">
<rect fill="white" x="0.48137" y="-5.69493" width="1090.35" height="629.459"/>
<path d="M837.673 474.722C834.089 476.791 829.684 478.385 824.777 479.286L666.671 508.323C621.79 516.553 581.477 519.987 543.396 518.856C460.084 516.403 381.889 496.656 323.241 463.202L130.136 353.135C107.844 340.434 102.27 320.701 116.167 304.036L240.838 155.093C248.144 146.194 260.76 138.845 276.238 134.428L532.696 60.7251C561.369 52.4552 595.641 55.4565 617.875 68.1576L811.122 178.306C869.715 211.695 904.906 256.53 910.249 304.551C912.694 326.581 907.206 349.884 893.525 375.789L845.377 467.23C843.902 470.078 841.227 472.637 837.673 474.722Z"/>
</mask>
<path d="M837.673 474.722C834.089 476.791 829.684 478.385 824.777 479.286L666.671 508.323C621.79 516.553 581.477 519.987 543.396 518.856C460.084 516.403 381.889 496.656 323.241 463.202L130.136 353.135C107.844 340.434 102.27 320.701 116.167 304.036L240.838 155.093C248.144 146.194 260.76 138.845 276.238 134.428L532.696 60.7251C561.369 52.4552 595.641 55.4565 617.875 68.1576L811.122 178.306C869.715 211.695 904.906 256.53 910.249 304.551C912.694 326.581 907.206 349.884 893.525 375.789L845.377 467.23C843.902 470.078 841.227 472.637 837.673 474.722Z" fill="white" fill-opacity="0.5"/>
<path d="M842.022 477.233C844.424 475.846 844.424 473.598 842.022 472.212C839.62 470.825 835.726 470.825 833.324 472.212L842.022 477.233ZM824.777 479.286L822.913 475.902L822.913 475.902L824.777 479.286ZM666.671 508.323L668.533 511.707L668.535 511.707L666.671 508.323ZM543.396 518.856L543.712 515.311L543.71 515.31L543.396 518.856ZM323.241 463.202L327.564 460.676L327.562 460.675L323.241 463.202ZM130.136 353.135L134.457 350.608L134.456 350.607L130.136 353.135ZM116.167 304.036L110.629 302.491L110.625 302.496L116.167 304.036ZM240.838 155.093L246.376 156.638C246.383 156.63 246.389 156.622 246.396 156.614L240.838 155.093ZM276.238 134.428L278.964 137.611L278.979 137.606L276.238 134.428ZM532.696 60.7251L535.437 63.9036L535.445 63.9014L532.696 60.7251ZM617.875 68.1576L613.549 70.6815L613.554 70.6842L617.875 68.1576ZM811.122 178.306L806.801 180.833L806.802 180.833L811.122 178.306ZM910.249 304.551L916.387 304.324L916.387 304.324L910.249 304.551ZM893.525 375.789L887.642 374.753L887.64 374.756L893.525 375.789ZM845.377 467.23L839.493 466.197C839.49 466.202 839.487 466.208 839.484 466.213L845.377 467.23ZM833.289 472.232C830.907 473.629 830.937 475.877 833.358 477.253C835.779 478.628 839.673 478.611 842.056 477.213L833.289 472.232ZM833.324 472.212C830.401 473.899 826.837 475.182 822.913 475.902L826.642 482.669C832.531 481.588 837.778 479.683 842.022 477.233L833.324 472.212ZM822.913 475.902L664.806 504.94L668.535 511.707L826.642 482.669L822.913 475.902ZM664.809 504.939C620.475 513.069 580.908 516.414 543.712 515.311L543.08 522.402C582.046 523.559 623.106 520.038 668.533 511.707L664.809 504.939ZM543.71 515.31C461.883 512.901 385.122 493.508 327.564 460.676L318.918 465.727C378.656 499.803 458.285 519.905 543.083 522.403L543.71 515.31ZM327.562 460.675L134.457 350.608L125.814 355.661L318.92 465.728L327.562 460.675ZM134.456 350.607C114.101 339.01 108.912 320.923 121.709 305.576L110.625 302.496C95.6292 320.48 101.588 341.858 125.815 355.662L134.456 350.607ZM121.705 305.581L246.376 156.638L235.3 153.548L110.629 302.491L121.705 305.581ZM246.396 156.614C253.098 148.45 264.703 141.681 278.964 137.611L273.512 131.245C256.816 136.01 243.191 143.937 235.28 153.573L246.396 156.614ZM278.979 137.606L535.437 63.9036L529.956 57.5465L273.497 131.249L278.979 137.606ZM535.445 63.9014C561.836 56.2898 593.247 59.0838 613.549 70.6815L622.201 65.6337C598.036 51.8293 560.903 48.6207 529.948 57.5488L535.445 63.9014ZM613.554 70.6842L806.801 180.833L815.443 175.78L622.196 65.631L613.554 70.6842ZM806.802 180.833C864.305 213.601 898.863 257.614 904.111 304.779L916.387 304.324C910.948 255.446 875.125 209.788 815.443 175.779L806.802 180.833ZM904.111 304.779C906.499 326.296 901.156 349.166 887.642 374.753L899.408 376.824C913.257 350.602 918.889 326.866 916.387 304.324L904.111 304.779ZM887.64 374.756L839.493 466.197L851.262 468.262L899.409 376.822L887.64 374.756ZM839.484 466.213C838.306 468.49 836.162 470.547 833.289 472.232L842.056 477.213C846.293 474.728 849.499 471.667 851.27 468.247L839.484 466.213Z" fill="url(#paint4_linear_2_730)" mask="url(#path-7-outside-2_2_730)"/>
</g>
<g filter="url(#filter5_i_2_730)">
<path d="M466.61 349.76L466.61 349.759C466.711 340.551 479.74 332.935 495.696 332.751L572.853 331.87L574.031 331.857L574.039 331.177L575.387 221.05C575.516 211.822 588.548 204.208 604.472 204.04C620.435 203.872 633.244 211.176 633.089 220.335L633.089 220.337L631.543 347.857L631.543 347.857C631.492 352.475 628.215 356.664 622.94 359.741C617.661 362.819 610.456 364.773 602.457 364.865C602.457 364.865 602.457 364.865 602.457 364.865L495.201 366.073C495.2 366.073 495.2 366.073 495.199 366.073C479.266 366.225 466.482 358.936 466.61 349.76Z" fill="#26F172" stroke="url(#paint5_linear_2_730)" stroke-width="1.97579"/>
</g>
<defs>
<filter id="filter0_bd_2_730" x="0.384171" y="307.104" width="1121.53" height="849.194" filterUnits="userSpaceOnUse" color-interpolation-filters="sRGB">
<feFlood flood-opacity="0" result="BackgroundImageFix"/>
<feGaussianBlur in="BackgroundImage" stdDeviation="22.5625"/>
<feComposite in2="SourceAlpha" operator="in" result="effect1_backgroundBlur_2_730"/>
<feColorMatrix in="SourceAlpha" type="matrix" values="0 0 0 0 0 0 0 0 0 0 0 0 0 0 0 0 0 0 127 0" result="hardAlpha"/>
<feOffset dy="188.021"/>
<feGaussianBlur stdDeviation="75.2084"/>
<feComposite in2="hardAlpha" operator="out"/>
<feColorMatrix type="matrix" values="0 0 0 0 0.343982 0 0 0 0 1 0 0 0 0 0.448945 0 0 0 0.5 0"/>
<feBlend mode="normal" in2="effect1_backgroundBlur_2_730" result="effect2_dropShadow_2_730"/>
<feBlend mode="normal" in="SourceGraphic" in2="effect2_dropShadow_2_730" result="shape"/>
</filter>
<filter id="filter1_b_2_730" x="109.969" y="257.486" width="904.765" height="560.323" filterUnits="userSpaceOnUse" color-interpolation-filters="sRGB">
<feFlood flood-opacity="0" result="BackgroundImageFix"/>
<feGaussianBlur in="BackgroundImage" stdDeviation="22.5625"/>
<feComposite in2="SourceAlpha" operator="in" result="effect1_backgroundBlur_2_730"/>
<feBlend mode="normal" in="SourceGraphic" in2="effect1_backgroundBlur_2_730" result="shape"/>
</filter>
<filter id="filter2_d_2_730" x="117.985" y="291.556" width="841.137" height="389.753" filterUnits="userSpaceOnUse" color-interpolation-filters="sRGB">
<feFlood flood-opacity="0" result="BackgroundImageFix"/>
<feColorMatrix in="SourceAlpha" type="matrix" values="0 0 0 0 0 0 0 0 0 0 0 0 0 0 0 0 0 0 127 0" result="hardAlpha"/>
<feOffset dy="56.9127"/>
<feGaussianBlur stdDeviation="36.8259"/>
<feComposite in2="hardAlpha" operator="out"/>
<feColorMatrix type="matrix" values="0 0 0 0 0 0 0 0 0 0.824769 0 0 0 0 0.300654 0 0 0 1 0"/>
<feBlend mode="normal" in2="BackgroundImageFix" result="effect1_dropShadow_2_730"/>
<feBlend mode="normal" in="SourceGraphic" in2="effect1_dropShadow_2_730" result="shape"/>
</filter>
<filter id="filter3_b_2_730" x="64.6739" y="68.6836" width="887.656" height="532.587" filterUnits="userSpaceOnUse" color-interpolation-filters="sRGB">
<feFlood flood-opacity="0" result="BackgroundImageFix"/>
<feGaussianBlur in="BackgroundImage" stdDeviation="16.739"/>
<feComposite in2="SourceAlpha" operator="in" result="effect1_backgroundBlur_2_730"/>
<feBlend mode="normal" in="SourceGraphic" in2="effect1_backgroundBlur_2_730" result="shape"/>
</filter>
<filter id="filter4_b_2_730" x="35.4927" y="-14.4127" width="948.427" height="603.985" filterUnits="userSpaceOnUse" color-interpolation-filters="sRGB">
<feFlood flood-opacity="0" result="BackgroundImageFix"/>
<feGaussianBlur in="BackgroundImage" stdDeviation="33.4781"/>
<feComposite in2="SourceAlpha" operator="in" result="effect1_backgroundBlur_2_730"/>
<feBlend mode="normal" in="SourceGraphic" in2="effect1_backgroundBlur_2_730" result="shape"/>
</filter>
<filter id="filter5_i_2_730" x="465.399" y="203.339" width="168.901" height="167.222" filterUnits="userSpaceOnUse" color-interpolation-filters="sRGB">
<feFlood flood-opacity="0" result="BackgroundImageFix"/>
<feBlend mode="normal" in="SourceGraphic" in2="BackgroundImageFix" result="shape"/>
<feColorMatrix in="SourceAlpha" type="matrix" values="0 0 0 0 0 0 0 0 0 0 0 0 0 0 0 0 0 0 127 0" result="hardAlpha"/>
<feOffset dy="8.80474"/>
<feGaussianBlur stdDeviation="1.89372"/>
<feComposite in2="hardAlpha" operator="arithmetic" k2="-1" k3="1"/>
<feColorMatrix type="matrix" values="0 0 0 0 1 0 0 0 0 1 0 0 0 0 1 0 0 0 1 0"/>
<feBlend mode="normal" in2="shape" result="effect1_innerShadow_2_730"/>
</filter>
<linearGradient id="paint0_linear_2_730" x1="209.789" y1="575.104" x2="985.027" y2="615.189" gradientUnits="userSpaceOnUse">
<stop stop-color="white" stop-opacity="0.25"/>
<stop offset="1" stop-color="white" stop-opacity="0"/>
</linearGradient>
<linearGradient id="paint1_linear_2_730" x1="309.479" y1="392.362" x2="598.609" y2="893.194" gradientUnits="userSpaceOnUse">
<stop stop-color="#24EF7F"/>
<stop offset="1" stop-color="#26F16D"/>
</linearGradient>
<linearGradient id="paint2_linear_2_730" x1="561.572" y1="500.799" x2="586.052" y2="793.946" gradientUnits="userSpaceOnUse">
<stop stop-color="white" stop-opacity="0.43"/>
<stop offset="0.846595" stop-color="white"/>
<stop offset="1" stop-color="white" stop-opacity="0"/>
</linearGradient>
<linearGradient id="paint3_linear_2_730" x1="157.14" y1="325.037" x2="932.378" y2="365.121" gradientUnits="userSpaceOnUse">
<stop stop-color="white" stop-opacity="0.25"/>
<stop offset="1" stop-color="white" stop-opacity="0"/>
</linearGradient>
<linearGradient id="paint4_linear_2_730" x1="648.615" y1="535.951" x2="696.918" y2="131.017" gradientUnits="userSpaceOnUse">
<stop stop-color="white" stop-opacity="0.79"/>
<stop offset="1" stop-color="white" stop-opacity="0"/>
</linearGradient>
<linearGradient id="paint5_linear_2_730" x1="446.779" y1="307.774" x2="653.919" y2="401.49" gradientUnits="userSpaceOnUse">
<stop stop-color="white" stop-opacity="0.25"/>
<stop offset="1" stop-color="white" stop-opacity="0"/>
</linearGradient>
</defs>
</svg>
